<svg width="206" height="131" viewBox="0 0 206 131" fill="none" xmlns="http://www.w3.org/2000/svg">
<path d="M147.421 3.04271C146.303 2.15782 145.021 1.50304 143.649 1.11615C142.277 0.729258 140.842 0.617924 139.426 0.788567C138.011 0.959211 136.643 1.40846 135.403 2.11038C134.162 2.8123 133.072 3.75299 132.197 4.87818L56.6188 102.05L19.5855 56.9191C18.7168 55.7628 17.6247 54.7928 16.374 54.0667C15.1232 53.3406 13.7394 52.8731 12.3045 52.6921C10.8696 52.5111 9.413 52.6202 8.02111 53.0129C6.62921 53.4057 5.33041 54.0741 4.20179 54.9784C3.07317 55.8828 2.13774 57.0046 1.45102 58.2774C0.764306 59.5502 0.340303 60.948 0.204181 62.3879C0.0680584 63.8277 0.222593 65.2802 0.658608 66.6591C1.09462 68.0381 1.80323 69.3154 2.74237 70.4152L47.7653 126.343C48.7815 127.596 50.0655 128.605 51.5228 129.296C52.9802 129.987 54.5739 130.343 56.1869 130.338C57.899 130.414 59.6048 130.082 61.1631 129.369C62.7214 128.655 64.0874 127.581 65.1483 126.235L149.688 18.2663C150.55 17.1221 151.175 15.8179 151.528 14.4295C151.881 13.0411 151.954 11.5964 151.743 10.1796C151.532 8.76271 151.041 7.402 150.299 6.17671C149.557 4.95143 148.578 3.88608 147.421 3.04271Z" fill="white" fill-opacity="0.1"/>
<path d="M201.429 3.04271C200.312 2.15782 199.03 1.50304 197.658 1.11615C196.286 0.729258 194.85 0.617924 193.435 0.788567C192.02 0.959211 190.652 1.40846 189.411 2.11038C188.171 2.81229 187.081 3.75299 186.206 4.87818L110.628 102.05L104.042 93.9524L90.4375 111.443L102.314 126.235C103.33 127.488 104.614 128.497 106.072 129.188C107.529 129.879 109.123 130.235 110.736 130.23C112.357 130.222 113.957 129.85 115.415 129.139C116.873 128.429 118.152 127.4 119.157 126.127L203.697 18.1583C204.542 17.0175 205.154 15.7212 205.497 14.3436C205.84 12.9661 205.909 11.5343 205.698 10.1303C205.488 8.72624 205.002 7.37754 204.27 6.16136C203.537 4.94519 202.572 3.88541 201.429 3.04271Z" fill="white" fill-opacity="0.1"/>
<path d="M62.0576 76.9975L75.9855 59.5066L73.8262 56.9153C72.9738 55.7344 71.8912 54.7381 70.6437 53.9864C69.3962 53.2348 68.0095 52.7433 66.5671 52.5416C65.1247 52.3398 63.6564 52.432 62.2505 52.8126C60.8447 53.1931 59.5303 53.8542 58.3866 54.756C57.2775 55.6469 56.3554 56.7483 55.6733 57.9969C54.9913 59.2454 54.5626 60.6164 54.4121 62.0311C54.2616 63.4458 54.3922 64.8763 54.7964 66.2403C55.2005 67.6044 55.8703 68.8752 56.7671 69.9795L62.0576 76.9975Z" fill="white" fill-opacity="0.1"/>
</svg>
